<svg id="Layer_1" data-name="Layer 1" xmlns="http://www.w3.org/2000/svg" viewBox="0 0 310.32 217.27"><defs><style>.cls-1{fill:#5d5a5e;}</style></defs><title>Untitled-2</title><path class="cls-1" d="M627.77,270.26v94H505v-94H489.24v94H460.58L427,271.8h-18.7L333.22,487.53h16.07l26-74.58h86.22l26.59,74.58h17.23l-.55-1.54H505V379.66H627.77V486h15.77V270.26Zm-210.4,17.87h.29c3.3,11.71,11.6,34.09,26.71,76.12h-52.3C404.57,327.15,413.48,300.92,417.37,288.13ZM380.85,397.54c2.07-6.17,4.09-12.14,6-17.88h63c2,5.64,4.15,11.59,6.37,17.88Zm108.39,45.64-23.05-63.52h23.05Z" transform="translate(-333.22 -270.26)"/></svg>